<svg class="icon icon--headerdeco11" viewBox="0 0 386.46 386.46">
    <path class="cls-1"
          d="M268.3,386.46H118.16A118.29,118.29,0,0,1,0,268.3V118.16A118.29,118.29,0,0,1,118.16,0H268.3A118.3,118.3,0,0,1,386.46,118.16V268.3A118.29,118.29,0,0,1,268.3,386.46ZM118.16,15A103.28,103.28,0,0,0,15,118.16V268.3A103.28,103.28,0,0,0,118.16,371.46H268.3A103.28,103.28,0,0,0,371.46,268.3V118.16A103.28,103.28,0,0,0,268.3,15Z"/>
    <path class="cls-1"
          d="M296,63.37a26,26,0,1,1-26.2,26,26.11,26.11,0,0,1,26.2-26m0-15a41,41,0,1,0,41.2,41,41.16,41.16,0,0,0-41.2-41Z"/>
    <path class="cls-1"
          d="M268.3,386.46H118.16A118.29,118.29,0,0,1,0,268.3V118.16A118.29,118.29,0,0,1,118.16,0H268.3A118.3,118.3,0,0,1,386.46,118.16V268.3A118.29,118.29,0,0,1,268.3,386.46ZM118.16,15A103.28,103.28,0,0,0,15,118.16V268.3A103.28,103.28,0,0,0,118.16,371.46H268.3A103.28,103.28,0,0,0,371.46,268.3V118.16A103.28,103.28,0,0,0,268.3,15Z"/>
    <path class="cls-1"
          d="M189.79,283.78A83.82,83.82,0,1,1,273.62,200,83.92,83.92,0,0,1,189.79,283.78Zm0-152.65A68.82,68.82,0,1,0,258.62,200,68.9,68.9,0,0,0,189.79,131.14Z"/>
    <path class="cls-1"
          d="M247.67,335.43H138.78A87.86,87.86,0,0,1,51,247.67V138.79A87.86,87.86,0,0,1,138.78,51H247.67a87.12,87.12,0,0,1,32.59,6.27l-5.59,13.92a72.18,72.18,0,0,0-27-5.2H138.78A72.84,72.84,0,0,0,66,138.79V247.67a72.84,72.84,0,0,0,72.76,72.76H247.67a72.84,72.84,0,0,0,72.76-72.76V138.79a72.18,72.18,0,0,0-5.24-27.12L329.1,106a87.12,87.12,0,0,1,6.33,32.74V247.67A87.86,87.86,0,0,1,247.67,335.43Z"/>
</svg>
