<svg class="icon icon--headerdeco2" viewBox="0 0 232.86 259.62">
    <circle class="cls-1" cx="30.25" cy="80.52" r="11.65" transform="translate(-26.69 16.05) rotate(-20.86)"/>
    <path class="cls-1"
          d="M12.54,144.07a11.38,11.38,0,0,1,10,.83,11.2,11.2,0,0,1,5,5.84A11.67,11.67,0,0,1,7.15,161.65a12.14,12.14,0,0,1-1.39-2.59A11.62,11.62,0,0,1,12.54,144.07Z"/>
    <path class="cls-1"
          d="M212,185.7a10.88,10.88,0,0,1,5.51-.66,11.65,11.65,0,0,1,2.8,22.47,11.8,11.8,0,0,1-4.92.75A11.68,11.68,0,0,1,212,185.7Z"/>
    <path class="cls-1"
          d="M20.32,214.17a20.88,20.88,0,0,1,26.93,12.07A20.12,20.12,0,0,1,48.4,236.6a20.88,20.88,0,0,1-40.22,4.52,20.29,20.29,0,0,1-1.29-8.63A20.84,20.84,0,0,1,20.32,214.17Z"/>
    <path class="cls-1"
          d="M166.11,6.37A20.88,20.88,0,0,1,193,18.44a20.11,20.11,0,0,1,1.15,10.37A20.88,20.88,0,0,1,154,33.33a20.32,20.32,0,0,1-1.29-8.64A20.85,20.85,0,0,1,166.11,6.37Z"/>
    <path class="cls-1"
          d="M107.66,80.24A37.39,37.39,0,0,1,154.7,99a24.08,24.08,0,0,1,1.22,2.83,37.4,37.4,0,0,1-21.63,48.26,24.85,24.85,0,0,1-3.05,1,37.39,37.39,0,0,1-23.58-70.91Z"/>
    <line class="cls-1" x1="41.64" y1="216.86" x2="97.66" y2="148.97"/>
    <line class="cls-1" x1="41.41" y1="83.7" x2="87.14" y2="99.16"/>
    <line class="cls-1" x1="27.57" y1="150.74" x2="85.91" y2="128.55"/>
    <line class="cls-1" x1="161.45" y1="42.99" x2="138.73" y2="82.29"/>
    <line class="cls-1" x1="205.28" y1="188.26" x2="150.98" y2="137.46"/>
</svg>
