<svg class="icon icon--headerdeco15" viewBox="0 0 266.71 266.71">
    <path class="cls-1"
          d="M133.35,0C59.82,0,0,59.82,0,133.35S59.82,266.71,133.35,266.71s133.35-59.82,133.35-133.35S206.88,0,133.35,0Zm115,124.38H208c-1.42-39.79-12.21-74.3-28.61-96.81A115.62,115.62,0,0,1,248.38,124.38Zm-124-104.91V124.38H76.64C78.74,71.9,99,28,124.38,19.47Zm0,122.86V247.24C99,238.7,78.74,194.81,76.64,142.33Zm17.94,104.91V142.33h47.75C188,194.81,167.66,238.7,142.32,247.24Zm0-122.86V19.47C167.66,28,188,71.9,190.07,124.38Zm-55-96.81c-16.39,22.51-27.19,57-28.61,96.81H18.33A115.62,115.62,0,0,1,87.28,27.57Zm-69,114.76H58.67c1.42,39.79,12.22,74.3,28.61,96.81A115.62,115.62,0,0,1,18.33,142.33Zm161.1,96.81c16.39-22.51,27.19-57,28.61-96.81h40.35A115.62,115.62,0,0,1,179.43,239.14Z"/>
</svg>
