<svg class="icon icon--headerdeco12" viewBox="0 0 143.6 91.38">
    <path class="cls-1"
          d="M93.29,91.38H12.4A12.39,12.39,0,0,1,0,79V12.4A12.39,12.39,0,0,1,12.4,0H93.29a12.39,12.39,0,0,1,12.4,12.4V78.92A12.4,12.4,0,0,1,93.29,91.38Zm-80.83-86a7,7,0,0,0-7,7V78.92a7,7,0,0,0,7,7H93.35a7,7,0,0,0,7-7V12.4a7,7,0,0,0-7-7Z"/>
    <path class="cls-1"
          d="M143.6,86l-23.43-15a14.23,14.23,0,0,1-6.56-12V27.12a14.23,14.23,0,0,1,6.56-12L143.6.06ZM138.24,9.9,123.1,19.61A9,9,0,0,0,119,27.12V58.9a8.88,8.88,0,0,0,4.11,7.51l15.14,9.72Z"/>
    <path class="cls-1"
          d="M52.87,67.06A21.34,21.34,0,1,1,74.22,45.72,21.36,21.36,0,0,1,52.87,67.06Zm0-37.38a16,16,0,1,0,16,16A16,16,0,0,0,52.87,29.69Z"/>
</svg>
