<svg class="icon icon--headerdeco14" viewBox="0 0 294.83 304.78">
    <path class="cls-1"
          d="M59.68,304.78H23.77C10.66,304.78,0,292.8,0,278.07V152.38c0-14.73,10.66-26.71,23.77-26.71H59.68c13.11,0,23.77,12,23.77,26.71a5,5,0,0,1-10,0c0-9.22-6.18-16.71-13.77-16.71H23.77c-7.59,0-13.77,7.5-13.77,16.71V278.07c0,9.22,6.18,16.71,13.77,16.71H59.68c7.59,0,13.77-7.5,13.77-16.71a5,5,0,0,1,10,0C83.44,292.8,72.78,304.78,59.68,304.78Z"/>
    <path class="cls-1"
          d="M139.91,304.52c-18.17,0-33-9.15-43-26.47-7.68-13.36-10.16-27.69-10.16-32.54V194.73A165.68,165.68,0,0,1,120.93,94.27l22.93-29.83a37.94,37.94,0,0,0,7.59-22.7V22.83A22.81,22.81,0,0,1,174,0h.24a35,35,0,0,1,35,35V42.3c0,10.73-6.25,35-8.45,42.68a5,5,0,0,1-9.62-2.75c2.53-8.83,8.06-31.15,8.06-39.93V35a25,25,0,0,0-25-25H174a12.94,12.94,0,0,0-12.6,12.82V41.74a48,48,0,0,1-9.64,28.76l-23,29.87a155.63,155.63,0,0,0-32.08,94.36v50.78c0,6.43,8,49,43.12,49l118.67-.2a13.6,13.6,0,0,0,13.6-13.59v-2.25a13.55,13.55,0,0,0-9.38-12.92,5,5,0,0,1,1.08-9.73,16.84,16.84,0,0,0,.59-33.46,5,5,0,0,1,.64-10H266c9.21,0,17.21-6.36,18.6-14.79A17.83,17.83,0,0,0,270.24,177a5,5,0,0,1-.34-9.76,20,20,0,0,0,12.55-9.83,20.48,20.48,0,0,0,1.18-16.48c-2.56-7.57-10.27-12.86-18.74-12.86H203.05a18.45,18.45,0,0,1-17.74-23.52,5,5,0,0,1,9.62,2.75,8.45,8.45,0,0,0,8.12,10.77h61.83c12.9,0,24.23,7.9,28.21,19.66a30.38,30.38,0,0,1-1.85,24.44,30,30,0,0,1-8.21,9.58A27.61,27.61,0,0,1,280,218.91a26.86,26.86,0,0,1-4.2,43.4,23.53,23.53,0,0,1,6.4,16.17v2.25a23.61,23.61,0,0,1-23.59,23.59Z"/>
</svg>
