<svg class="icon icon--headerdeco8" viewBox="0 0 326.07 174.88">
    <path class="cls-1"
          d="M0,16.24V158.63a16.24,16.24,0,0,0,16.24,16.24H309.83a16.24,16.24,0,0,0,16.24-16.24V16.24A16.24,16.24,0,0,0,309.83,0H16.24A16.24,16.24,0,0,0,0,16.24ZM13.36,41.9a5.47,5.47,0,1,1,5.47,5.47A5.47,5.47,0,0,1,13.36,41.9Zm0,69.68V63.3a5.47,5.47,0,0,1,10.93,0v48.27a5.47,5.47,0,1,1-10.93,0Zm0,21.4a5.47,5.47,0,1,1,5.47,5.46A5.47,5.47,0,0,1,13.36,133ZM320.45,87.44a13.21,13.21,0,1,1-13.21-13.21A13.21,13.21,0,0,1,320.45,87.44Zm-32-75V162.48H37.65V12.4Z"/>
</svg>
