<svg class="icon icon--headerdeco10" viewBox="0 0 208.68 342.29">
    <path class="cls-1"
          d="M169.31,342.29a5,5,0,0,1-2.13-.48L95.86,308.13H5a5,5,0,0,1-5-5V5A5,5,0,0,1,5,0H203.68a5,5,0,0,1,5,5V303.13a5,5,0,0,1-5,5H173.83l.48,29.08a5,5,0,0,1-5,5.08ZM10,298.13H97a5,5,0,0,1,2.14.48l65.07,30.73-.43-26.13a5,5,0,0,1,5-5.08h29.93V10H10Z"/>
    <path class="cls-1" d="M163.7,52.24H39.27a5,5,0,0,1,0-10H163.7a5,5,0,0,1,0,10Z"/>
    <path class="cls-1" d="M143.74,86.28H39.27a5,5,0,1,1,0-10H143.74a5,5,0,0,1,0,10Z"/>
    <path class="cls-1" d="M115.57,120.32H39.27a5,5,0,1,1,0-10h76.3a5,5,0,0,1,0,10Z"/>
    <path class="cls-1" d="M168.4,154.35H39.27a5,5,0,0,1,0-10H168.4a5,5,0,1,1,0,10Z"/>
    <path class="cls-1" d="M122.61,188.4H39.27a5,5,0,0,1,0-10h83.34a5,5,0,1,1,0,10Z"/>
    <path class="cls-1" d="M143.74,222.44H39.27a5,5,0,1,1,0-10H143.74a5,5,0,0,1,0,10Z"/>
    <path class="cls-1" d="M122.61,256.48H39.27a5,5,0,0,1,0-10h83.34a5,5,0,1,1,0,10Z"/>
</svg>
