<svg class="icon icon--headerdeco4" viewBox="0 0 212.52 206.2">
    <path class="cls-1"
          d="M106.24,132.09A31.29,31.29,0,1,0,75,100.8,31.33,31.33,0,0,0,106.24,132.09Zm0-53a21.73,21.73,0,1,1-21.7,21.73A21.75,21.75,0,0,1,106.24,79.06Z"/>
    <path class="cls-1"
          d="M147.8,137.47H64.68A15.74,15.74,0,0,0,49,153.19v26.18h9.56V153.19A6.17,6.17,0,0,1,64.68,147H147.8a6.18,6.18,0,0,1,6.2,6.16v26.18h9.56V153.19A15.75,15.75,0,0,0,147.8,137.47Z"/>
    <path class="cls-1"
          d="M190.63,42.67,153,42.47,113.52,3A10.34,10.34,0,0,0,99,3L59,42.67H21.88A21.92,21.92,0,0,0,0,64.58V184.31A21.91,21.91,0,0,0,21.88,206.2H190.63a21.91,21.91,0,0,0,21.88-21.88V64.58A21.92,21.92,0,0,0,190.63,42.67ZM203,184.31a12.33,12.33,0,0,1-12.32,12.32H21.88A12.33,12.33,0,0,1,9.56,184.31V64.58A12.35,12.35,0,0,1,21.88,52.23H59a10.4,10.4,0,0,0,7.28-3L106.73,9.76l39.51,39.51a10.37,10.37,0,0,0,7.24,3h37.16A12.35,12.35,0,0,1,203,64.58Z"/>
</svg>
