<svg class="icon icon--headerdeco7" viewBox="0 0 254.62 254.62">
    <path class="cls-1"
          d="M200.87,0H53.75A53.82,53.82,0,0,0,0,53.75V200.87a53.82,53.82,0,0,0,53.75,53.75H200.87a53.82,53.82,0,0,0,53.75-53.75V53.75A53.82,53.82,0,0,0,200.87,0Zm35.32,200.87a35.35,35.35,0,0,1-35.32,35.32H53.75a35.35,35.35,0,0,1-35.32-35.32V53.75A35.35,35.35,0,0,1,53.75,18.43H200.87a35.35,35.35,0,0,1,35.32,35.31Z"/>
    <polygon class="cls-1"
             points="136.51 70.23 118.08 70.23 118.08 118.09 70.23 118.09 70.23 136.53 118.08 136.53 118.08 184.39 136.51 184.39 136.51 136.53 184.39 136.53 184.39 118.09 136.51 118.09 136.51 70.23"/>
</svg>
