<svg class="icon icon--headerdeco17" viewBox="0 0 337.41 252.78">
    <path class="cls-1"
          d="M193.77,1.16A250.32,250.32,0,0,1,304.27,38.4c10.6,6.65,16.26,10.51,25.67,18.77,12.88,11.3,7.34,19.89-3.33,28.79-9.22,7.69-21.64,9.35-31,1.85C247.18,49,180,35.79,120,50.64A205.41,205.41,0,0,0,68,71.46C57.17,77.63,48,85.61,38.56,93.29a18.5,18.5,0,0,1-25.59-2C9.8,87.64,6.7,84,3.59,80.34A14.81,14.81,0,0,1,5.2,59.39l.1-.08C56.83,13.56,125.54-5,193.77,1.16Z"/>
    <path class="cls-1"
          d="M164.47,252.33a44.07,44.07,0,0,1-9.62-85c24.13-9.07,51.14,4.33,58.36,28.77,5.89,19.92-4.54,42.68-22.91,52A43.29,43.29,0,0,1,164.47,252.33Z"/>
    <path class="cls-1"
          d="M170.13,75c45.15.41,81.62,10.88,116.25,40.87,4.13,3.61,10.2,9,3.67,15.09-7.75,11-10.61,13.87-19.58,20.4-7.75,5.71-17.72-.78-20.4-3.26-29.9-26.29-54.59-32.17-94-28.67a129.55,129.55,0,0,0-73,30.5A12.44,12.44,0,0,1,66,148.78c-5.52-6-8.57-8.35-15.78-14.91-3.37-3.06-5.3-7.75,1.22-13.46C86.67,89.54,122.91,75.56,170.13,75Z"/>
</svg>
