<svg class="icon icon--certification" viewBox="0 0 477.5 477.5" aria-hidden="true">
<style type="text/css">
	.st0{fill:#FFFFFF;}
	.st1{fill:#303031;}
</style>
	<polygon class="st0" points="325.3,456 235.3,379.3 144.7,456 144.7,220 325.3,220 "/>
	<circle class="st0" cx="239" cy="159" r="135.7"/>
	<path class="st1" d="M329.1,477.5c-4.7,0-9.9-1.6-13.6-5.2l-76.8-65.8l-76.3,65.8c-6.3,5.2-15.2,6.8-22.5,3.1
	c-7.3-3.7-12.5-11-12.5-19.3v-0.5l7.8-186l31.3,1.6l-6.8,162l64.8-55.9c7.8-7.3,20.4-7.3,28.2,0l64.8,55.9l-6.8-162l31.3-1.6
	l7.8,186v0.5c0,8.4-4.7,15.7-12,19.3C334.9,476.5,331.8,477.5,329.1,477.5z"/>
	<path class="st1" d="M238.8,318.7c-87.8,0-159.3-71.6-159.3-159.3S151,0,238.8,0s159.3,71.6,159.3,159.3S326.5,318.7,238.8,318.7z
	 M238.8,31.3c-70.5,0-128,57.5-128,128s57.5,128,128,128s128-57.5,128-128S309.3,31.3,238.8,31.3z"/>
	<path class="st1" d="M217.9,217.9L217.9,217.9c-4.2,0-8.4-1.6-11-4.7L164,169.8c-6.3-6.3-6.3-16.2,0-21.9c6.3-6.3,16.2-6.3,21.9,0
	l31.9,32.4l68.4-68.4c6.3-6.3,16.2-6.3,21.9,0c6.3,6.3,6.3,16.2,0,21.9l-79.4,79.4C226.2,216.3,222,217.9,217.9,217.9z"/>
</svg>
