<svg class="icon icon--conv" viewBox="0 0 251.98 165.28">
    <path class="cls-1"
          d="M29.51,116.64a7.5,7.5,0,0,1-7.48-8l1.36-19.1A31.41,31.41,0,0,1,0,59.19V31.35A31.39,31.39,0,0,1,31.37,0h80.13a31.38,31.38,0,0,1,31.35,31.35v6.36a7.5,7.5,0,0,1-7.5,7.5h-13.7A20.73,20.73,0,0,0,101,65.89V83a7.5,7.5,0,0,1-7.5,7.5H67.81L33.92,115.2A7.49,7.49,0,0,1,29.51,116.64ZM31.37,15A16.38,16.38,0,0,0,15,31.35V59.19A16.38,16.38,0,0,0,31.37,75.54a7.5,7.5,0,0,1,7.48,8l-.72,10L61,77a7.5,7.5,0,0,1,4.41-1.44H86V65.89a35.73,35.73,0,0,1,35.66-35.69h6.16A16.37,16.37,0,0,0,111.51,15Z"/>
    <path class="cls-1" d="M109.62,35.59h-64a7.5,7.5,0,0,1,0-15h64a7.5,7.5,0,1,1,0,15Z"/>
    <path class="cls-1" d="M75.2,68.56H29.51a7.5,7.5,0,1,1,0-15H75.2a7.5,7.5,0,1,1,0,15Z"/>
    <path class="cls-1" d="M61.66,52.08H29.51a7.5,7.5,0,0,1,0-15H61.66a7.5,7.5,0,0,1,0,15Z"/>
    <path class="cls-1" d="M103.28,52.08H87.18a7.5,7.5,0,0,1,0-15h16.1a7.5,7.5,0,0,1,0,15Z"/>
    <path class="cls-1"
          d="M218.51,165.28a7.49,7.49,0,0,1-4.42-1.44l-40.35-29.4H121.65A35.7,35.7,0,0,1,86,98.78V65.89a35.73,35.73,0,0,1,35.66-35.69H216.3A35.72,35.72,0,0,1,252,65.89V98.78a35.73,35.73,0,0,1-27.69,34.76l1.7,23.7a7.5,7.5,0,0,1-7.48,8ZM121.65,45.21A20.73,20.73,0,0,0,101,65.89V98.78a20.68,20.68,0,0,0,20.66,20.66h54.53a7.5,7.5,0,0,1,4.42,1.44l29.28,21.33-1.06-14.73a7.5,7.5,0,0,1,7.48-8A20.69,20.69,0,0,0,237,98.78V65.89A20.71,20.71,0,0,0,216.3,45.21Z"/>
    <path class="cls-1" d="M199.52,69.55H123.9a7.5,7.5,0,1,1,0-15h75.63a7.5,7.5,0,0,1,0,15Z"/>
    <path class="cls-1" d="M218.51,108.5h-54a7.5,7.5,0,0,1,0-15h54a7.5,7.5,0,0,1,0,15Z"/>
    <path class="cls-1" d="M218.51,89h-38a7.5,7.5,0,0,1,0-15h38a7.5,7.5,0,0,1,0,15Z"/>
    <path class="cls-1" d="M150.4,89H126.31a7.5,7.5,0,1,1,0-15H150.4a7.5,7.5,0,0,1,0,15Z"/>
</svg>
