<svg class="icon icon--instagram" viewBox="0 0 247.56 241.55">
    <path d="M208.3,34.54h-23a9.84,9.84,0,0,0-9.87,9.87v23a9.84,9.84,0,0,0,9.87,9.87h23a9.84,9.84,0,0,0,9.87-9.87v-23A10,10,0,0,0,208.3,34.54Zm5.58,32.82a5.54,5.54,0,0,1-5.58,5.58h-23a5.54,5.54,0,0,1-5.58-5.58v-23a5.54,5.54,0,0,1,5.58-5.58h23a5.54,5.54,0,0,1,5.58,5.58Z"/><path class="cls-1" d="M123.78,109.83a37.76,37.76,0,1,0,37.76,37.76A37.81,37.81,0,0,0,123.78,109.83Zm0,71.22a33.47,33.47,0,1,1,33.47-33.47A33.51,33.51,0,0,1,123.78,181.06Z"/><path class="cls-1" d="M195,3H52.56A49.58,49.58,0,0,0,3,52.56V189a49.58,49.58,0,0,0,49.56,49.56H195A49.58,49.58,0,0,0,244.56,189V52.56C244.77,25.31,222.46,3,195,3Zm45.48,186.21a45.41,45.41,0,0,1-45.26,45.26H52.77A45.41,45.41,0,0,1,7.51,189.21V96.32H80.23a67.38,67.38,0,1,0,111.12,51.27,67.56,67.56,0,0,0-23.6-51.27h72.72v92.89Zm-79.8-92.89a63.07,63.07,0,1,1-73.37,0h1.07v-.86a63.43,63.43,0,0,1,71.22,0v.86ZM240.48,92h-78.3a67.69,67.69,0,0,0-76.37,0H7.29V52.56A45.41,45.41,0,0,1,52.56,7.29H195a45.41,45.41,0,0,1,45.26,45.26V92Z"/>
</svg>
