<svg class="icon icon--pc" viewBox="0 0 279.15 278.76">
            <path class="cls-1"
                  d="M260.7,62H28.76a4.5,4.5,0,0,1-4.5-4.5v-39a4.5,4.5,0,0,1,4.5-4.5H260.7a4.5,4.5,0,0,1,4.5,4.5v39A4.5,4.5,0,0,1,260.7,62ZM33.26,53H256.2V23H33.26Z"/>
            <path class="cls-1"
                  d="M260.7,182.66H28.76a4.5,4.5,0,0,1-4.5-4.5V57.46a4.5,4.5,0,0,1,4.5-4.5H260.7a4.5,4.5,0,0,1,4.5,4.5v120.7A4.5,4.5,0,0,1,260.7,182.66Zm-227.44-9H256.2V62H33.26Z"/>
            <path class="cls-1"
                  d="M260.7,182.66H28.76a4.5,4.5,0,0,1-4.5-4.5V57.46a4.5,4.5,0,0,1,4.5-4.5H260.7a4.5,4.5,0,0,1,4.5,4.5v120.7A4.5,4.5,0,0,1,260.7,182.66Zm-227.44-9H256.2V62H33.26Z"/>
            <path class="cls-1"
                  d="M242.76,163H46.71a4.5,4.5,0,0,1-4.5-4.5v-101a4.5,4.5,0,0,1,4.5-4.5H242.76a4.5,4.5,0,0,1,4.5,4.5v101A4.5,4.5,0,0,1,242.76,163ZM51.21,154H238.26V62H51.21Z"/>
            <path class="cls-1" d="M96.5,38.63H46.71a4.5,4.5,0,0,1,0-9H96.5a4.5,4.5,0,1,1,0,9Z"/>
            <path class="cls-1" d="M96.5,50.3H46.71a4.5,4.5,0,0,1,0-9H96.5a4.5,4.5,0,1,1,0,9Z"/>
            <path class="cls-1" d="M144.73,50.3h-26a4.5,4.5,0,1,1,0-9h26a4.5,4.5,0,0,1,0,9Z"/>
            <path class="cls-1" d="M220,119.07H149.39a4.5,4.5,0,0,1,0-9H220a4.5,4.5,0,0,1,0,9Z"/>
            <path class="cls-1" d="M200.16,131.29H149.39a4.5,4.5,0,1,1,0-9h50.77a4.5,4.5,0,0,1,0,9Z"/>
            <path class="cls-1" d="M189.18,143.5h-39.8a4.5,4.5,0,0,1,0-9h39.8a4.5,4.5,0,0,1,0,9Z"/>
            <path class="cls-1"
                  d="M139.84,103.92H69.1a4.5,4.5,0,0,1-4.5-4.5V80.58a4.5,4.5,0,0,1,4.5-4.5h70.74a4.5,4.5,0,0,1,4.5,4.5V99.42A4.5,4.5,0,0,1,139.84,103.92Zm-66.24-9h61.74V85.08H73.6Z"/>
            <path class="cls-1"
                  d="M221.11,103.92H157.31a4.5,4.5,0,0,1-4.5-4.5V80.58a4.5,4.5,0,0,1,4.5-4.5h63.79a4.5,4.5,0,0,1,4.5,4.5V99.42A4.5,4.5,0,0,1,221.11,103.92Zm-59.29-9h54.79V85.08H161.81Z"/>
            <path class="cls-1"
                  d="M132.9,146.32H69.1a4.5,4.5,0,0,1-4.5-4.5V111.75a4.5,4.5,0,0,1,4.5-4.5H132.9a4.5,4.5,0,0,1,4.5,4.5v30.06A4.5,4.5,0,0,1,132.9,146.32Zm-59.29-9H128.4V116.25H73.6Z"/>
            <path class="cls-1"
                  d="M228.47,42.5a4.5,4.5,0,0,1-2.68-8.11l.12-.09a4.5,4.5,0,0,1,5.36,7.23l-.12.09A4.48,4.48,0,0,1,228.47,42.5Z"/>
            <path class="cls-1"
                  d="M212.2,42.5a4.5,4.5,0,0,1-2.68-8.12l.12-.09A4.5,4.5,0,1,1,215,41.53l-.12.09A4.48,4.48,0,0,1,212.2,42.5Z"/>
            <path class="cls-1"
                  d="M195.93,42.5a4.5,4.5,0,0,1-2.68-8.11l.12-.09a4.5,4.5,0,0,1,5.36,7.23l-.12.09A4.48,4.48,0,0,1,195.93,42.5Z"/>
            <path class="cls-1"
                  d="M259.06,232.23h-239A20.09,20.09,0,0,1,0,212.14v-192A20.09,20.09,0,0,1,20.09,0h239a20.09,20.09,0,0,1,20.09,20.09v192A20.09,20.09,0,0,1,259.06,232.23ZM20.09,9A11.09,11.09,0,0,0,9,20.09v192a11.09,11.09,0,0,0,11.09,11.09h239a11.09,11.09,0,0,0,11.09-11.09v-192A11.09,11.09,0,0,0,259.06,9Z"/>
            <path class="cls-1" d="M274.65,182.66H4.5a4.5,4.5,0,0,1,0-9H274.65a4.5,4.5,0,0,1,0,9Z"/>
            <path class="cls-1"
                  d="M139.58,218.09a13.57,13.57,0,1,1,9.59-23.17h0a13.57,13.57,0,0,1-9.6,23.17Zm0-18.14a4.57,4.57,0,1,0,3.23,1.33A4.56,4.56,0,0,0,139.58,200Z"/>
            <path class="cls-1"
                  d="M172,267.51H107.2a4.5,4.5,0,0,1-4.5-4.5V227.73a4.5,4.5,0,0,1,4.5-4.5H172a4.5,4.5,0,0,1,4.5,4.5V263A4.5,4.5,0,0,1,172,267.51Zm-60.25-9h55.75V232.23H111.7Z"/>
            <path class="cls-1"
                  d="M212.26,278.76H66.9a4.5,4.5,0,0,1-4.5-4.5,15.54,15.54,0,0,1,15.44-15.61H201.31a15.54,15.54,0,0,1,15.44,15.61A4.5,4.5,0,0,1,212.26,278.76Zm-139.13-9H206a6.35,6.35,0,0,0-4.71-2.11H77.84A6.35,6.35,0,0,0,73.12,269.76Z"/>
            <path class="cls-1"
                  d="M260.7,182.66H18.27a4.5,4.5,0,0,1-4.5-4.5V18.75a4.5,4.5,0,0,1,4.5-4.5H260.7a4.5,4.5,0,0,1,4.5,4.5V178.16A4.5,4.5,0,0,1,260.7,182.66Zm-237.93-9H256.2V23.25H22.77Z"/>
</svg>
