<svg class="icon icon--skillsarrow" data-p="1" data-d="both" viewBox="0 0 191.1 437.7">
    <defs>
        <style></style>
    </defs>
            <path class="cls-1"
                  d="M95.5,47.8a6.81,6.81,0,0,1,6.8,6.8V355.3a6.8,6.8,0,0,1-13.6,0V54.6A6.81,6.81,0,0,1,95.5,47.8Z"/>
            <path class="cls-1"
                  d="M68.3,349.3h54.5c6,0,11,2.5,13.7,6.8s2.7,9.9,0,15.3l-28.7,57.4h0c-2.8,5.6-7.3,8.8-12.2,8.9s-9.4-3.2-12.2-8.8L54.7,371.5c-2.7-5.4-2.7-11,0-15.3S62.3,349.3,68.3,349.3Zm56.5,13.9a7,7,0,0,0-2-.3H68.3a3.69,3.69,0,0,0-2.1.4c.1,0,.1.7.7,2l28.6,57.4v0l28.7-57.4c.7-1.2.7-1.9.6-2.1Z"/>
            <circle class="cls-2" cx="95.5" cy="34.1" r="27.3"/>
            <path class="cls-1"
                  d="M95.5,0A34.1,34.1,0,1,1,61.4,34.1,34.14,34.14,0,0,1,95.5,0Zm0,54.6A20.5,20.5,0,1,0,75,34.1,20.53,20.53,0,0,0,95.5,54.6Z"/>
            <path class="cls-1"
                  d="M95.5,136.8a7,7,0,0,1,4.1,1.4l68.3,51.9a6.82,6.82,0,0,1,2.7,5.4v50.2a6.8,6.8,0,1,1-13.6,0V198.8L91.4,149a6.85,6.85,0,0,1-1.3-9.6A6.73,6.73,0,0,1,95.5,136.8Z"/>
            <path class="cls-1"
                  d="M95.5,177.7a6.54,6.54,0,0,1,5.4,2.7,6.85,6.85,0,0,1-1.3,9.6L34,239.8v46.9a6.8,6.8,0,1,1-13.6,0V236.4a6.82,6.82,0,0,1,2.7-5.4l68.3-51.9A7,7,0,0,1,95.5,177.7Z"/>
            <circle class="cls-2" cx="163.8" cy="266.2" r="20.5"/>
            <path class="cls-1"
                  d="M163.8,238.9a27.3,27.3,0,1,1-27.3,27.3A27.34,27.34,0,0,1,163.8,238.9Zm0,41a13.7,13.7,0,1,0-13.7-13.7A13.72,13.72,0,0,0,163.8,279.9Z"/>
            <path class="cls-2"
                  d="M47.8,320.9a6.87,6.87,0,0,1-6.8,6.8H13.6a6.87,6.87,0,0,1-6.8-6.8V293.5a6.87,6.87,0,0,1,6.8-6.8H41a6.87,6.87,0,0,1,6.8,6.8Z"/>
            <path class="cls-1"
                  d="M13.6,279.9H41a13.61,13.61,0,0,1,13.6,13.6v27.4A13.61,13.61,0,0,1,41,334.5H13.6A13.61,13.61,0,0,1,0,320.9V293.5A13.61,13.61,0,0,1,13.6,279.9Zm27.3,40.9V293.4l-27.4.1.1,27.4Z"/>
</svg>
