<svg class="icon icon--ads" viewBox="0 0 291.8 153.5">
    <circle class="cls-1" cx="143.8" cy="34.6" r="34.6"/>
    <path class="cls-1"
          d="M199.6,118.8H88V97.2A34.18,34.18,0,0,1,122.2,63h43.1a34.18,34.18,0,0,1,34.2,34.2v21.6Z"/>
    <circle class="cls-2" cx="177.93" cy="55.52" r="25.3" transform="translate(110.69 229.37) rotate(-86.19)"/>
    <path class="cls-2"
          d="M218.8,117H137.3V101.2a24.9,24.9,0,0,1,24.9-24.9h31.5a24.9,24.9,0,0,1,24.9,24.9l.2,15.8Z"/>
    <circle class="cls-3" cx="147.03" cy="70.62" r="20.7" transform="translate(66.78 212.63) rotate(-86.19)"/>
    <path class="cls-3"
          d="M180.5,121H113.8V108.1a20.36,20.36,0,0,1,20.4-20.4H160a20.36,20.36,0,0,1,20.4,20.4l.1,12.9Z"/>
    <path class="cls-1"
          d="M218.3,47.2a8.1,8.1,0,1,0,8.1,8.1A8.07,8.07,0,0,0,218.3,47.2Zm0,12.2a4.1,4.1,0,1,1,0-8.2,4.06,4.06,0,0,1,4.1,4.1A4.18,4.18,0,0,1,218.3,59.4Z"/>
    <path class="cls-1"
          d="M83.5,24.7a1.74,1.74,0,0,0-.3-1.4,2,2,0,0,0-1.2-.8A1.76,1.76,0,0,0,79.9,24l-1,5.3-5.3-1a1.76,1.76,0,0,0-2.1,1.5A1.83,1.83,0,0,0,73,31.9l5.3,1-1,5.3a1.82,1.82,0,0,0,3.6.6l1-5.3,5.3,1A1.76,1.76,0,0,0,89.3,33a1.74,1.74,0,0,0-.3-1.4,2,2,0,0,0-1.2-.8l-5.3-1Z"/>
    <path class="cls-1"
          d="M125,143.8v-39a4.48,4.48,0,0,1,4.5-4.5h0a4.48,4.48,0,0,1,4.5,4.5v39a4.48,4.48,0,0,1-4.5,4.5h0A4.48,4.48,0,0,1,125,143.8Z"/>
    <path class="cls-2"
          d="M154.7,146.8a1.71,1.71,0,0,0,1.7-1.7,1.75,1.75,0,0,0-1.7-1.7h-5v-5a1.7,1.7,0,0,0-3.4,0v5h-5a1.7,1.7,0,1,0,0,3.4h5v5a1.75,1.75,0,0,0,1.7,1.7,1.71,1.71,0,0,0,1.7-1.7v-5Z"/>
    <path class="cls-2"
          d="M107.1,143.3h5.5a1.91,1.91,0,0,1,1.4,3.2,2,2,0,0,1-1.3.6H98a1.9,1.9,0,0,1,0-3.8h9.1Z"/>
    <path class="cls-1"
          d="M276.1,126.5a.47.47,0,0,1-.5-.5v-.2a.47.47,0,0,1,.5-.5h3.6a.9.9,0,0,0,.9-.9h0a.9.9,0,0,0-.9-.9H267.8a.86.86,0,0,1-.8-.8v-.3a.86.86,0,0,1,.8-.8h11.1a.88.88,0,0,0,.8-1.3,6.2,6.2,0,0,0-5.5-3.3H39.7a7.17,7.17,0,0,0-7.2,7.2v.5a7.17,7.17,0,0,0,7.2,7.2H274.3a6.07,6.07,0,0,0,5.9-4.2.88.88,0,0,0-.8-1.2Z"/>
    <path class="cls-2"
          d="M291.2,122.3h-9.8a.58.58,0,0,1-.6-.6v-.2a.58.58,0,0,1,.6-.6h9.8a.58.58,0,0,1,.6.6v.2C291.7,122,291.5,122.3,291.2,122.3Z"/>
    <path class="cls-2"
          d="M287,126h-4a.43.43,0,0,1-.4-.4v-.1a.43.43,0,0,1,.4-.4h4a.43.43,0,0,1,.4.4v.1A.43.43,0,0,1,287,126Z"/>
    <path class="cls-2"
          d="M17.6,107.4H39a1.58,1.58,0,0,1,1.6,1.6v.6a1.58,1.58,0,0,1-1.6,1.6H17.6a1.58,1.58,0,0,1-1.6-1.6V109A1.81,1.81,0,0,1,17.6,107.4Z"/>
    <path class="cls-1"
          d="M.9,101.9H16.1a.9.9,0,0,1,.9.9v.3a.9.9,0,0,1-.9.9H.9a.9.9,0,0,1-.9-.9v-.3A.84.84,0,0,1,.9,101.9Z"/>
    <path class="cls-2"
          d="M70.8,67.6a2.1,2.1,0,1,0-2.1-2.1A2.18,2.18,0,0,0,70.8,67.6Zm0-3.2a1,1,0,1,1-1,1A1.08,1.08,0,0,1,70.8,64.4Z"/>
    <path class="cls-2"
          d="M227.8,84.4c0-.1-.1-.2-.2-.3a.37.37,0,0,0-.3-.1c-.2.1-.4.2-.4.5l.2,1.3-1.3.2c-.2.1-.4.2-.4.5s.2.4.5.4l1.3-.2.2,1.3c.1.2.2.4.5.4s.4-.2.4-.5l-.2-1.3,1.3-.2c.2-.1.4-.2.4-.5,0-.1-.1-.2-.2-.3a.37.37,0,0,0-.3-.1l-1.3.2Z"/>
</svg>
