<svg class="icon icon--cm" viewBox="0 0 273.17 213.24">
    <path class="cls-1" d="M195.77,49.7c3.2,0,4.5,1.9,4.5,4.5a4.5,4.5,0,1,1-9,0A4.48,4.48,0,0,1,195.77,49.7Z"/>
    <path class="cls-1" d="M234.77,49.7a4.5,4.5,0,1,1-4.5,4.5A4.42,4.42,0,0,1,234.77,49.7Z"/>
    <path class="cls-1"
          d="M122.07,71.2c6.3,18.7,24.2,31.1,44,31.1h59.3a5,5,0,0,1,3.8,1.7L268,149.4a3,3,0,0,0,5.2-1.9V52a45.79,45.79,0,0,0-45.8-45.8h-60C135.17,6.2,110.57,37.4,122.07,71.2ZM222.67,62a14.38,14.38,0,0,1,19.8-19.8,13.22,13.22,0,0,1,4.4,4.4,14.38,14.38,0,0,1-19.8,19.8A12.37,12.37,0,0,1,222.67,62Zm-38.2,1.2c-7.5-11,.7-23.2,11.4-23.2a14.43,14.43,0,0,1,14.3,14.3c.8,9.3-8.7,16.8-19.4,13.5A11.73,11.73,0,0,1,184.47,63.2ZM145.37,62a14.38,14.38,0,0,1,19.8-19.8,13.22,13.22,0,0,1,4.4,4.4,14.38,14.38,0,0,1-19.8,19.8A13.22,13.22,0,0,1,145.37,62Z"/>
    <path class="cls-1" d="M157.57,49.7a4.5,4.5,0,1,1-4.5,4.5A4.36,4.36,0,0,1,157.57,49.7Z"/>
    <path class="cls-2" d="M97.47,112.7c-3.2,0-4.5,1.9-4.5,4.5a4.5,4.5,0,0,0,9,0A4.42,4.42,0,0,0,97.47,112.7Z"/>
    <path class="cls-2" d="M58.57,112.7a4.5,4.5,0,1,0,4.5,4.5A4.48,4.48,0,0,0,58.57,112.7Z"/>
    <path class="cls-2"
          d="M126.07,69.2H66.27a46,46,0,0,0-46,46v95a3.09,3.09,0,0,0,5.4,2l38.5-45.1a5.32,5.32,0,0,1,3.9-1.8h59.1a46.46,46.46,0,0,0,44.1-31.2C182.67,100.3,158.07,69.2,126.07,69.2Zm-59.8,60.2a14.38,14.38,0,0,1-19.8-19.8,12.37,12.37,0,0,1,4.4-4.4A14.38,14.38,0,0,1,70.67,125,13.22,13.22,0,0,1,66.27,129.4Zm36.3,1.4c-10.8,3.3-20.2-4.2-19.4-13.5A14.43,14.43,0,0,1,97.47,103c10.6,0,18.9,12.1,11.4,23.1A11.9,11.9,0,0,1,102.57,130.8Zm40.9-1.4a14.38,14.38,0,0,1-19.8-19.8,12.37,12.37,0,0,1,4.4-4.4,14.38,14.38,0,0,1,19.8,19.8A12.37,12.37,0,0,1,143.47,129.4Z"/>
    <path class="cls-2" d="M135.77,112.7a4.5,4.5,0,1,0,4.5,4.5A4.42,4.42,0,0,0,135.77,112.7Z"/>
    <path class="cls-1"
          d="M63.47,34.6H47.37A2.43,2.43,0,0,1,45,32.2h0a2.43,2.43,0,0,1,2.4-2.4h16.1a2.43,2.43,0,0,1,2.4,2.4h0A2.43,2.43,0,0,1,63.47,34.6Z"/>
    <path class="cls-2"
          d="M78.17,41.5H66.37a1.32,1.32,0,0,1-1.3-1.3h0a1.32,1.32,0,0,1,1.3-1.3h11.8a1.32,1.32,0,0,1,1.3,1.3h0A1.26,1.26,0,0,1,78.17,41.5Z"/>
    <path class="cls-2"
          d="M98.77,181.1a1.45,1.45,0,0,0-.2-.7,1.61,1.61,0,0,0-.7-.4,1.17,1.17,0,0,0-1.1.9l-.3,2.9-2.9-.3a1,1,0,0,0-.2,2l2.9.3-.3,2.9a1.17,1.17,0,0,0,.9,1.1c.5.1,1-.4,1.1-.9l.3-2.9,2.9.3a1.17,1.17,0,0,0,1.1-.9,1.45,1.45,0,0,0-.2-.7,1.61,1.61,0,0,0-.7-.4l-2.9-.3Z"/>
    <path class="cls-1"
          d="M6.27,56.8a2.09,2.09,0,0,1-.6-.4l-4.4-6.7a.89.89,0,0,1,.3-1.3.89.89,0,0,1,1.3.3l4.4,6.7A.89.89,0,0,1,7,56.7,1.7,1.7,0,0,1,6.27,56.8Z"/>
    <path class="cls-1"
          d="M.77,55.6a2.09,2.09,0,0,1-.6-.4.89.89,0,0,1,.3-1.3l6.7-4.4a.94.94,0,1,1,1,1.6l-6.7,4.4A.88.88,0,0,1,.77,55.6Z"/>
    <path class="cls-2"
          d="M175.67,178.4h26a2.43,2.43,0,0,1,2.4,2.4h0a2.43,2.43,0,0,1-2.4,2.4h-26a2.43,2.43,0,0,1-2.4-2.4h0A2.5,2.5,0,0,1,175.67,178.4Z"/>
    <path class="cls-1"
          d="M154.57,171.5h18.5a1.32,1.32,0,0,1,1.3,1.3h0a1.32,1.32,0,0,1-1.3,1.3h-18.6a1.32,1.32,0,0,1-1.3-1.3h0A1.34,1.34,0,0,1,154.57,171.5Z"/>
    <circle class="cls-3" cx="209.57" cy="130.1" r="4.1"/>
    <circle class="cls-4" cx="109.97" cy="6" r="4"/>
</svg>
