<svg class="icon icon--ereput" viewBox="0 0 304.41 173.76">
    <path class="cls-1"
          d="M249.5,103.43l-26.5,3.8a2.09,2.09,0,0,1-2.1-3.1L234,80.83a2.51,2.51,0,0,0,.1-1.9l-11.8-24a2.13,2.13,0,0,1,2.3-3l26.3,5.2a1.79,1.79,0,0,0,1.8-.6l19.2-18.6a2.06,2.06,0,0,1,3.5,1.2l3.1,26.6a2.27,2.27,0,0,0,1.1,1.6l23.7,12.5a2.05,2.05,0,0,1-.1,3.7l-24.3,11.1a1.74,1.74,0,0,0-1.2,1.6l-4.6,26.4a2.12,2.12,0,0,1-3.6,1.1L251.4,104A2.12,2.12,0,0,0,249.5,103.43Z"/>
    <path class="cls-2"
          d="M100.9,78.13h0A8.13,8.13,0,0,1,109,70h81.5a8.13,8.13,0,0,1,8.1,8.1h0a8.13,8.13,0,0,1-8.1,8.1H109A8.13,8.13,0,0,1,100.9,78.13Z"/>
    <path class="cls-2"
          d="M68.2,78.13h0A8.13,8.13,0,0,1,76.3,70h0a8.13,8.13,0,0,1,8.1,8.1h0a8.13,8.13,0,0,1-8.1,8.1h0A8.13,8.13,0,0,1,68.2,78.13Z"/>
    <path class="cls-1"
          d="M150.2,158.43l-19.6,2.7a1.55,1.55,0,0,1-1.6-2.2l9.7-17.2a2.25,2.25,0,0,0,.1-1.4l-8.6-17.9a1.53,1.53,0,0,1,1.7-2.2l19.4,3.9a1.79,1.79,0,0,0,1.4-.4L166.9,110a1.54,1.54,0,0,1,2.6.9l2.2,19.6a1.64,1.64,0,0,0,.8,1.2l17.4,9.3a1.46,1.46,0,0,1-.1,2.7l-17.9,8.2a1.59,1.59,0,0,0-.9,1.2l-3.4,19.4a1.56,1.56,0,0,1-2.7.7l-13.4-14.5A1.44,1.44,0,0,0,150.2,158.43Z"/>
    <path class="cls-2"
          d="M40.5,139.73h0a6,6,0,0,1,6-6h60.2a6,6,0,0,1,6,6h0a6,6,0,0,1-6,6H46.5A6,6,0,0,1,40.5,139.73Z"/>
    <path class="cls-2"
          d="M16.5,139.73h0a6,6,0,0,1,6-6h0a6,6,0,0,1,6,6h0a6,6,0,0,1-6,6h0A5.89,5.89,0,0,1,16.5,139.73Z"/>
    <path class="cls-1"
          d="M109.9,39.83l-16.1,2a1.23,1.23,0,0,1-1.2-1.9l8.2-14a1.63,1.63,0,0,0,.1-1.2L94,10a1.22,1.22,0,0,1,1.4-1.7l15.8,3.4a1.38,1.38,0,0,0,1.2-.3L124.3.33a1.36,1.36,0,0,1,2.2.8l1.6,16.2c0,.4.2.7.7,1l14.2,7.9a1.23,1.23,0,0,1-.1,2.2L128,34.93a1.07,1.07,0,0,0-.7.9l-3.1,16a1.28,1.28,0,0,1-2.2.6l-10.8-12.1C110.7,39.93,110.3,39.73,109.9,39.83Z"/>
    <path class="cls-2"
          d="M19.9,24.53h0a5,5,0,0,1,5-5H74.4a5,5,0,0,1,5,5h0a5,5,0,0,1-5,5H24.9A5,5,0,0,1,19.9,24.53Z"/>
    <path class="cls-2"
          d="M0,24.53H0a5,5,0,0,1,5-5H5a5,5,0,0,1,5,5h0a5,5,0,0,1-5,5H5A5.08,5.08,0,0,1,0,24.53Z"/>
    <path class="cls-1"
          d="M82.3,45.53H59.4a2.33,2.33,0,0,1-2.3-2.3h0a2.33,2.33,0,0,1,2.3-2.3H82.3a2.33,2.33,0,0,1,2.3,2.3h0A2.26,2.26,0,0,1,82.3,45.53Z"/>
    <path class="cls-2"
          d="M93.6,56.53H78.1a1.69,1.69,0,0,1-1.7-1.7h0a1.69,1.69,0,0,1,1.7-1.7H93.6a1.69,1.69,0,0,1,1.7,1.7h0A1.83,1.83,0,0,1,93.6,56.53Z"/>
    <path class="cls-1"
          d="M94.2,118.33h22.9a2.33,2.33,0,0,1,2.3,2.3h0a2.33,2.33,0,0,1-2.3,2.3H94.2a2.33,2.33,0,0,1-2.3-2.3h0A2.2,2.2,0,0,1,94.2,118.33Z"/>
    <path class="cls-2"
          d="M82.9,107.43H98.4a1.69,1.69,0,0,1,1.7,1.7h0a1.69,1.69,0,0,1-1.7,1.7H82.9a1.69,1.69,0,0,1-1.7-1.7h0A1.75,1.75,0,0,1,82.9,107.43Z"/>
    <path class="cls-1"
          d="M228.5,27.73a3.1,3.1,0,1,0-3.1-3.1A3.18,3.18,0,0,0,228.5,27.73Zm0-4.5a1.5,1.5,0,1,1-1.5,1.5A1.47,1.47,0,0,1,228.5,23.23Z"/>
    <path class="cls-2"
          d="M192.4,36.13a1,1,0,0,0,.5-.6.62.62,0,0,0-.1-.7.88.88,0,0,0-1.3-.4l-2.6,1.3-1.3-2.6a.88.88,0,0,0-1.3-.4.9.9,0,0,0-.4,1.3l1.3,2.6-2.6,1.3a1,1,0,0,0,.9,1.7l2.6-1.3,1.3,2.6a.88.88,0,0,0,1.3.4,1,1,0,0,0,.5-.6.62.62,0,0,0-.1-.7l-1.3-2.6Z"/>
    <path class="cls-2"
          d="M239.1,136.33a3.1,3.1,0,1,0-3.1-3.1A3.05,3.05,0,0,0,239.1,136.33Zm0-4.5a1.5,1.5,0,1,1-1.5,1.5A1.47,1.47,0,0,1,239.1,131.83Z"/>
    <path class="cls-1"
          d="M211,159a.52.52,0,0,0-.2-.4c-.2-.1-.3-.2-.5-.2a.75.75,0,0,0-.6.7l.2,1.9-1.9.2a.65.65,0,1,0,.1,1.3l1.9-.2.2,1.9a.75.75,0,0,0,.7.6c.4,0,.6-.3.6-.7l-.2-1.9,1.9-.2a.75.75,0,0,0,.6-.7.52.52,0,0,0-.2-.4c-.2-.1-.3-.2-.5-.2l-1.9.2Z"/>
</svg>
