<svg class="icon icon--games" viewBox="0 0 148.6 228.2">
    <path class="cls-1" d="M28.3,137.1l-.9-61.5A27.44,27.44,0,0,0,0,103v48.2H14.2c-.1-7.5,6.5-14.1,14.1-14.1"/>
    <path class="cls-1" d="M120.2,137.1a14.52,14.52,0,0,1,14.2,14.2h14.2V103.1a27.44,27.44,0,0,0-27.4-27.4l-1,61.4"/>
    <path class="cls-2" d="M93.6,11.3,74.6,0,55.7,11.3c-18,12.3-29.3,32.1-29.3,53.9v71.9h95.5V65.2C122.9,43.5,111.5,23.6,93.6,11.3Zm-19,77.6A20.8,20.8,0,1,1,95.4,68.1,21,21,0,0,1,74.6,88.9Z"/>
    <path class="cls-3" d="M47.7,140.5h0a7.13,7.13,0,0,1,7.1,7.1v19.9a7.13,7.13,0,0,1-7.1,7.1h0a7.13,7.13,0,0,1-7.1-7.1V147.6A7.13,7.13,0,0,1,47.7,140.5Z"/>
    <path class="cls-2" d="M47.7,185.3h0a7.13,7.13,0,0,1,7.1,7.1h0a7.13,7.13,0,0,1-7.1,7.1h0a7.13,7.13,0,0,1-7.1-7.1h0A7.13,7.13,0,0,1,47.7,185.3Z"/>
    <path class="cls-1" d="M102.5,140.5h0a7.13,7.13,0,0,1,7.1,7.1v19.9a7.13,7.13,0,0,1-7.1,7.1h0a7.13,7.13,0,0,1-7.1-7.1V147.6A7.13,7.13,0,0,1,102.5,140.5Z"/>
    <path class="cls-2" d="M102.5,185.3h0a7.13,7.13,0,0,1,7.1,7.1h0a7.13,7.13,0,0,1-7.1,7.1h0a7.13,7.13,0,0,1-7.1-7.1h0A7.13,7.13,0,0,1,102.5,185.3Z"/>
    <path class="cls-1" d="M74.6,95.5A27.4,27.4,0,1,0,47.2,68.1,27.44,27.44,0,0,0,74.6,95.5Zm0-40.7A13.44,13.44,0,0,1,87.8,68c0,6.6-6.6,14.2-13.2,14.2S60.4,75.6,60.4,68,67.1,54.8,74.6,54.8Z"/>
    <path class="cls-2" d="M74.9,149.4h0a7.13,7.13,0,0,1,7.1,7.1v40.7a7.13,7.13,0,0,1-7.1,7.1h0a7.13,7.13,0,0,1-7.1-7.1V156.5A7.13,7.13,0,0,1,74.9,149.4Z"/>
    <path class="cls-1" d="M74.9,214h0a7.13,7.13,0,0,1,7.1,7.1h0a7.13,7.13,0,0,1-7.1,7.1h0a7.13,7.13,0,0,1-7.1-7.1h0A7.13,7.13,0,0,1,74.9,214Z"/>
    <path class="cls-4" d="M23.3,164.5v15.8a1.58,1.58,0,0,1-1.6,1.6h0a1.58,1.58,0,0,1-1.6-1.6V164.5a1.58,1.58,0,0,1,1.6-1.6h0A1.58,1.58,0,0,1,23.3,164.5Z"/>
    <path class="cls-1" d="M30.9,156.7v10.7a1.11,1.11,0,0,1-1.1,1.1h0a1.11,1.11,0,0,1-1.1-1.1V156.7a1.11,1.11,0,0,1,1.1-1.1h0A1,1,0,0,1,30.9,156.7Z"/>
    <path class="cls-4" d="M121.7,178.8V167.3a1.22,1.22,0,0,1,1.2-1.2h0a1.22,1.22,0,0,1,1.2,1.2v11.5a1.22,1.22,0,0,1-1.2,1.2h0A1.16,1.16,0,0,1,121.7,178.8Z"/>
    <path class="cls-1" d="M117.6,169.7v-7.8a.79.79,0,0,1,.8-.8h0a.79.79,0,0,1,.8.8v7.8a.79.79,0,0,1-.8.8h0C118,170.6,117.6,170.2,117.6,169.7Z"/>
    <path class="cls-4" d="M28,27.7a2.84,2.84,0,1,0-4,.3A2.84,2.84,0,0,0,28,27.7Zm-3.1-2.8a1.35,1.35,0,1,1,2,1.8,1.35,1.35,0,1,1-2-1.8Z"/>
    <path class="cls-1" d="M8.4,49.6a.88.88,0,0,0-.1-.7.68.68,0,0,0-.6-.4.92.92,0,0,0-1.1.7L6,51.8l-2.6-.6A.92.92,0,0,0,3,53l2.6.6L5,56.2a.92.92,0,1,0,1.8.4L7.4,54l2.6.6a.92.92,0,0,0,1.1-.7.88.88,0,0,0-.1-.7.68.68,0,0,0-.6-.4l-2.6-.6Z"/>
    <path class="cls-4" d="M128.1,18.3a.55.55,0,0,0-.3-.5,1.45,1.45,0,0,0-.7-.2,1,1,0,0,0-.8,1l.3,2.5-2.5.3a.91.91,0,0,0,.2,1.8l2.5-.3.3,2.5a1,1,0,0,0,1,.8c.6,0,.8-.4.8-1l-.3-2.5,2.5-.3a1,1,0,0,0,.8-1,.55.55,0,0,0-.3-.5,1.45,1.45,0,0,0-.7-.2l-2.5.3Z"/>
    <path class="cls-1" d="M128.6,44.5a2.06,2.06,0,1,0-2.9.2A2.16,2.16,0,0,0,128.6,44.5Zm-2.2-2a1,1,0,1,1,.1,1.4A1,1,0,0,1,126.4,42.5Z"/>
</svg>
