<svg class="icon icon--live" viewBox="0 0 173.45 250.7">
    <path class="cls-1"
          d="M118.75,84.4h0a3.33,3.33,0,0,1,3.3-3.3h9.7V74.6h-9.7a3.33,3.33,0,0,1-3.3-3.3h0a3.33,3.33,0,0,1,3.3-3.3h9.7V61.5h-9.7a3.33,3.33,0,0,1-3.3-3.3h0a3.33,3.33,0,0,1,3.3-3.3h9.7v-17c0-20.9-16.6-37.9-37-37.9h0c-20.5,0-37,17-37,37.9v17h9.6a3.33,3.33,0,0,1,3.3,3.3h0a3.33,3.33,0,0,1-3.3,3.3h-9.6V68h9.6a3.33,3.33,0,0,1,3.3,3.3h0a3.33,3.33,0,0,1-3.3,3.3h-9.6v6.5h9.6a3.33,3.33,0,0,1,3.3,3.3h0a3.33,3.33,0,0,1-3.3,3.3h-9.6v17c0,20.9,16.6,37.9,37,37.9h0c20.5,0,37-17,37-37.9v-17h-9.7A3.33,3.33,0,0,1,118.75,84.4Z"/>
    <path class="cls-1"
          d="M19,20.2h0a1.22,1.22,0,0,1-1.2-1.2V13.4A1.22,1.22,0,0,1,19,12.2h0a1.22,1.22,0,0,1,1.2,1.2V19A1.16,1.16,0,0,1,19,20.2Z"/>
    <path class="cls-2"
          d="M169.65,25.6v7.1a.5.5,0,0,1-1,0V25.2a7.31,7.31,0,0,0-3-.6,10.87,10.87,0,0,0-2.6.4V36.7a.9.9,0,1,1-1.8,0V25.8a7.83,7.83,0,0,0-3.5,6.5v75a62,62,0,0,1-55.2,61.7,70.91,70.91,0,0,1-16.6-.1h-.1a62.07,62.07,0,0,1-54.7-61.7v-75a7.81,7.81,0,0,0-7.8-7.8h0a6.43,6.43,0,0,0-3.1.7V41.5a1.22,1.22,0,0,1-1.2,1.2,1.16,1.16,0,0,1-1.2-1.2V26.6a7.88,7.88,0,0,0-2.3,5.5v75A77.52,77.52,0,0,0,76,182.8v60.4s-25.7-.6-25.7,7.5h87.9s.6-7.5-25.7-7.5V183a77.55,77.55,0,0,0,61-75.9v-75A7.52,7.52,0,0,0,169.65,25.6Z"/>
    <path class="cls-1"
          d="M168.65,23.5h0a.47.47,0,0,1-.5-.5V17.1a.47.47,0,0,1,.5-.5h0a.47.47,0,0,1,.5.5V23A.47.47,0,0,1,168.65,23.5Z"/>
    <path class="cls-1"
          d="M161.05,21.9h0a.68.68,0,0,1-.7-.7V18.6a.68.68,0,0,1,.7-.7h0a.68.68,0,0,1,.7.7v2.6A.68.68,0,0,1,161.05,21.9Z"/>
    <path class="cls-1"
          d="M9.25,160.1a.82.82,0,0,1-.7.1l-7.8-1.6a.85.85,0,0,1-.7-1.1.85.85,0,0,1,1.1-.7L9,158.4a.85.85,0,0,1,.7,1.1A.62.62,0,0,1,9.25,160.1Z"/>
    <path class="cls-1"
          d="M4.55,163.2a.82.82,0,0,1-.7.1.85.85,0,0,1-.7-1.1l1.6-7.8a.85.85,0,0,1,1.1-.7.85.85,0,0,1,.7,1.1L5,162.6A.68.68,0,0,1,4.55,163.2Z"/>
    <path class="cls-3"
          d="M48,207.6a5.8,5.8,0,1,1,5.8-5.8A5.8,5.8,0,0,1,48,207.6Zm0-10a4.2,4.2,0,1,0,4.2,4.2A4.23,4.23,0,0,0,48,197.6Z"/>
    <path class="cls-2"
          d="M160.25,181.4h-11a1.58,1.58,0,0,1-1.6-1.6h0a1.58,1.58,0,0,1,1.6-1.6h11a1.58,1.58,0,0,1,1.6,1.6h0A1.64,1.64,0,0,1,160.25,181.4Z"/>
    <path class="cls-1"
          d="M170.25,186.2h-8.1a.9.9,0,0,1-.9-.9h0a.9.9,0,0,1,.9-.9h8.1a.9.9,0,0,1,.9.9h0A.9.9,0,0,1,170.25,186.2Z"/>
    <path class="cls-1"
          d="M163.25,218.1a.82.82,0,0,1-.7.1l-7.8-1.6a.92.92,0,1,1,.4-1.8l7.8,1.6a.85.85,0,0,1,.7,1.1A.62.62,0,0,1,163.25,218.1Z"/>
    <path class="cls-1"
          d="M158.55,221.2a.82.82,0,0,1-.7.1.85.85,0,0,1-.7-1.1l1.6-7.8a.92.92,0,0,1,1.8.4l-1.6,7.8A.68.68,0,0,1,158.55,221.2Z"/>
    <circle class="cls-4" cx="132.65" cy="199.5" r="4.2"/>
</svg>
