<svg class="icon icon--need" viewBox="0 0 311.81 270.24">
    <path class="cls-1" d="M136.51,70.5"/>
    <path class="cls-1" d="M136,26.1"/>
    <polyline class="cls-2" points="187.91 123.9 75.31 80.6 311.81 0"/>
    <polyline class="cls-1" points="235.91 238 187.91 123.8 311.51 0.2"/>
    <path class="cls-3"
          d="M64.41,104.1a1.81,1.81,0,0,0,.7-1.7,4,4,0,0,0-.7-1.9,2.73,2.73,0,0,0-3.6,0l-5.2,5.2-5.2-5.2a2.55,2.55,0,1,0-3.6,3.6l5.2,5.2-5.2,5.2a2.73,2.73,0,0,0,0,3.6c1,1.3,2.4,1,3.6,0l5.2-5.2,5.2,5.2a2.73,2.73,0,0,0,3.6,0,1.81,1.81,0,0,0,.7-1.7,4,4,0,0,0-.7-1.9l-5.2-5.2Z"/>
    <path class="cls-1"
          d="M5.51,151.3a6,6,0,0,0,6.2-5.5,6,6,0,0,0-5.5-6.2,5.86,5.86,0,0,0-.7,11.7Zm.5-8.7a2.85,2.85,0,0,1-.3,5.7,2.85,2.85,0,0,1,.3-5.7Z"/>
    <path class="cls-3"
          d="M118.61,156.5l18.9-20.2a2.83,2.83,0,0,1,4-.1h0a2.83,2.83,0,0,1,.1,4l-18.9,20.2a2.83,2.83,0,0,1-4,.1h0A2.84,2.84,0,0,1,118.61,156.5Z"/>
    <path class="cls-1"
          d="M126.41,133.9l12.8-13.7a2,2,0,0,1,2.8-.1h0a2,2,0,0,1,.1,2.8l-12.8,13.7a2,2,0,0,1-2.8.1h0A1.94,1.94,0,0,1,126.41,133.9Z"/>
    <path class="cls-3"
          d="M151.21,207.4,133,226.8a2.6,2.6,0,0,1-3.8.1h0a2.6,2.6,0,0,1-.1-3.8l18.2-19.4a2.6,2.6,0,0,1,3.8-.1h0A2.6,2.6,0,0,1,151.21,207.4Z"/>
    <path class="cls-1"
          d="M143.71,229.1l-12.3,13.2a1.9,1.9,0,0,1-2.7.1h0a1.9,1.9,0,0,1-.1-2.7l12.3-13.2a1.9,1.9,0,0,1,2.7-.1h0A1.9,1.9,0,0,1,143.71,229.1Z"/>
    <path class="cls-1"
          d="M166.31,146.8a6.34,6.34,0,0,0-9,0l-88.7,88.7a6.41,6.41,0,0,0-1.7,6l4.9-5.1a.93.93,0,0,1,1.3,0,.85.85,0,0,1,0,1.3l-5.5,5.6.9,1.2c.1.1.3.2.4.4l2.3-2.3a.49.49,0,0,1,.7.7l-2.2,2.2a6.2,6.2,0,0,0,3.2.9,6.29,6.29,0,0,0,4.5-1.9l88.7-88.7A6.17,6.17,0,0,0,166.31,146.8Z"/>
    <path class="cls-2"
          d="M117.61,119.6a5.25,5.25,0,0,0-7.5,0l-37.3,37.3a5.25,5.25,0,0,0-1.1,5.9l2.6-2.7a.42.42,0,0,1,.6.6l-2.8,2.9a2.7,2.7,0,0,0,.7.8c.2.2.4.3.6.5l5-5.1a.78.78,0,0,1,1.1,1.1l-4.7,4.8a5.66,5.66,0,0,0,1.8.3,5.22,5.22,0,0,0,3.8-1.6l37.3-37.3A5.34,5.34,0,0,0,117.61,119.6Z"/>
    <path class="cls-2"
          d="M192.41,190.3a3.62,3.62,0,0,0-5.1,0l-25.5,25.5a3.5,3.5,0,0,0-.6,4.3l3.2-3.3a.28.28,0,0,1,.4.4l-3.3,3.4a1.38,1.38,0,0,1,.3.4,5.5,5.5,0,0,0,.9.7l2.1-2.1a.28.28,0,0,1,.4.4l-1.9,1.9a3.4,3.4,0,0,0,1,.1,3.81,3.81,0,0,0,2.6-1.1l25.5-25.5A3.45,3.45,0,0,0,192.41,190.3Z"/>
    <path class="cls-1"
          d="M190.91,258.7a1.54,1.54,0,0,0-.2-1.1,1.46,1.46,0,0,0-.9-.6,1.4,1.4,0,0,0-1.7,1l-1,3.9-3.9-1a1.39,1.39,0,0,0-.7,2.7l3.9,1-1,3.9a1.39,1.39,0,1,0,2.7.7l1-3.9,3.9,1a1.4,1.4,0,0,0,1.7-1,1.54,1.54,0,0,0-.2-1.1,1.46,1.46,0,0,0-.9-.6l-3.9-1Z"/>
</svg>
