<svg class="icon icon--redac" viewBox="0 0 134.3 300.7">
    <rect class="cls-1" x="48.5" y="158.1" width="51.2" height="30.4"/>
    <rect class="cls-2" x="48.7" y="163.7" width="50.8" height="12.3"/>
    <path class="cls-3"
          d="M99.3,203.1V55.1a5.1,5.1,0,1,1,10.2-.2V203.2a5.1,5.1,0,0,1-5,5.1h0A5.23,5.23,0,0,1,99.3,203.1Z"/>
    <path class="cls-3"
          d="M38.7,203V36.2C38.7,16.5,54.5,0,74.2,0a35.47,35.47,0,0,1,35.3,35.2,5.05,5.05,0,1,1-10.1.1A25.25,25.25,0,0,0,75.9,10.1c-14.9-1-27,11-27,25.9V202.9a5.12,5.12,0,0,1-5.1,5.1h0A5,5,0,0,1,38.7,203Z"/>
    <path class="cls-1"
          d="M75.1,57.5h0a6.06,6.06,0,0,1,6.1,6.1v68.7a6.06,6.06,0,0,1-6.1,6.1h0a6.06,6.06,0,0,1-6.1-6.1V63.6A6.12,6.12,0,0,1,75.1,57.5Z"/>
    <path class="cls-1"
          d="M109.4,259.2,99.3,208.6a5,5,0,0,0-5-4.1H53.8a5.13,5.13,0,0,0-5,4.1L38.7,259.2a5.17,5.17,0,0,0,1.1,4.3l30.4,35.4a5.27,5.27,0,0,0,3.8,1.8,4.78,4.78,0,0,0,3.8-1.8l30.4-35.4A4.92,4.92,0,0,0,109.4,259.2ZM74.1,250a10.1,10.1,0,1,1,10.1-10.1A10.07,10.07,0,0,1,74.1,250Z"/>
    <path class="cls-3"
          d="M12.6,246H1.6A1.58,1.58,0,0,1,0,244.4H0a1.58,1.58,0,0,1,1.6-1.6h11a1.58,1.58,0,0,1,1.6,1.6h0A1.64,1.64,0,0,1,12.6,246Z"/>
    <path class="cls-1"
          d="M22.6,250.8H14.5a.9.9,0,0,1-.9-.9h0a.9.9,0,0,1,.9-.9h8.1a.9.9,0,0,1,.9.9h0A.9.9,0,0,1,22.6,250.8Z"/>
    <path class="cls-1"
          d="M28.5,218.2a.82.82,0,0,1-.7.1L20,216.7a.92.92,0,1,1,.4-1.8l7.8,1.6a.85.85,0,0,1,.7,1.1A.68.68,0,0,1,28.5,218.2Z"/>
    <path class="cls-1"
          d="M23.8,221.3a.82.82,0,0,1-.7.1.85.85,0,0,1-.7-1.1l1.6-7.8a.92.92,0,0,1,1.8.4l-1.6,7.8A.92.92,0,0,1,23.8,221.3Z"/>
    <circle class="cls-4" cx="127.5" cy="230.5" r="5.3"/>
    <path class="cls-3"
          d="M121.6,282.8a2.09,2.09,0,0,1-.6-.4l-4.4-6.7a.94.94,0,1,1,1.6-1l4.4,6.7a.89.89,0,0,1-.3,1.3A1.7,1.7,0,0,1,121.6,282.8Z"/>
    <path class="cls-3"
          d="M116,281.6a2.09,2.09,0,0,1-.6-.4.89.89,0,0,1,.3-1.3l6.7-4.4a.94.94,0,1,1,1,1.6l-6.7,4.4A.76.76,0,0,1,116,281.6Z"/>
    <path class="cls-2"
          d="M79.3,72.5h0a.47.47,0,0,1-.5-.5V57.3a.47.47,0,0,1,.5-.5h0a.47.47,0,0,1,.5.5V72A.47.47,0,0,1,79.3,72.5Z"/>
    <path class="cls-2"
          d="M79.3,149.2h0a.47.47,0,0,1-.5-.5V134a.47.47,0,0,1,.5-.5h0a.47.47,0,0,1,.5.5v14.7A.47.47,0,0,1,79.3,149.2Z"/>
    <path class="cls-1"
          d="M79.9,56.4h0a.47.47,0,0,1-.5-.5V54a.47.47,0,0,1,.5-.5h0a.47.47,0,0,1,.5.5v1.9A.47.47,0,0,1,79.9,56.4Z"/>
    <path class="cls-2"
          d="M71.8,65.3h0a.47.47,0,0,1-.5-.5V50.1a.47.47,0,0,1,.5-.5h0a.47.47,0,0,1,.5.5V64.8A.47.47,0,0,1,71.8,65.3Z"/>
    <path class="cls-1"
          d="M71.4,57.2h0a.68.68,0,0,1-.7-.7V47.9a.68.68,0,0,1,.7-.7h0a.68.68,0,0,1,.7.7v8.6A.75.75,0,0,1,71.4,57.2Z"/>
    <path class="cls-1"
          d="M79.4,142.2h0a.43.43,0,0,1-.4-.4v-3.1a.43.43,0,0,1,.4-.4h0a.43.43,0,0,1,.4.4v3.1A.43.43,0,0,1,79.4,142.2Z"/>
</svg>
