<svg class="icon icon--relations" viewBox="0 0 172.4 253.85">
    <rect class="cls-2" x="7.4" y="139.75" width="80.3" height="32.3"/>
    <rect class="cls-2" x="51.6" y="93.95" width="80.3" height="32.3"/>
    <path class="cls-1"
          d="M126.7,41.25H11.9A11.86,11.86,0,0,0,0,53.15V242a11.86,11.86,0,0,0,11.9,11.9H126.7A11.86,11.86,0,0,0,138.6,242V53.15A11.93,11.93,0,0,0,126.7,41.25Zm-2.6,182.6a8.17,8.17,0,0,1-8.2,8.2H22.7a8.17,8.17,0,0,1-8.2-8.2V72.15A8.17,8.17,0,0,1,22.7,64h93.2a8.17,8.17,0,0,1,8.2,8.2Z"/>
    <circle class="cls-3" cx="35.9" cy="55.55" r="4.6"/>
    <path class="cls-3"
          d="M103.6,59.45H65.1a3.9,3.9,0,0,1-3.9-3.9h0a3.9,3.9,0,0,1,3.9-3.9h38.5a3.9,3.9,0,0,1,3.9,3.9h0A4,4,0,0,1,103.6,59.45Z"/>
    <circle class="cls-3" cx="69.3" cy="242.25" r="6.6"/>
    <path class="cls-3"
          d="M113,103.55h-9a2.33,2.33,0,0,0-2.3,2.3,2.26,2.26,0,0,0,2.3,2.3h9a2.3,2.3,0,0,0,0-4.6Z"/>
    <path class="cls-3"
          d="M95,103.55H63.5a2.33,2.33,0,0,0-2.3,2.3,2.26,2.26,0,0,0,2.3,2.3H95a2.3,2.3,0,0,0,0-4.6Z"/>
    <path class="cls-3"
          d="M113,112.55H88.2a2.33,2.33,0,0,0-2.3,2.3,2.26,2.26,0,0,0,2.3,2.3H113a2.3,2.3,0,0,0,0-4.6Z"/>
    <path class="cls-3"
          d="M79.2,112.55H63.4a2.33,2.33,0,0,0-2.3,2.3,2.26,2.26,0,0,0,2.3,2.3H79.2a2.33,2.33,0,0,0,2.3-2.3A2.26,2.26,0,0,0,79.2,112.55Z"/>
    <path class="cls-2"
          d="M83.6,114H79a.27.27,0,0,1-.3-.3h0a.27.27,0,0,1,.3-.3h4.6a.27.27,0,0,1,.3.3h0A.27.27,0,0,1,83.6,114Z"/>
    <path class="cls-2"
          d="M98.7,106.65H94a.22.22,0,0,0-.2.2h0a.22.22,0,0,0,.2.2h4.7a.22.22,0,0,0,.2-.2h0C99,106.75,98.8,106.65,98.7,106.65Z"/>
    <path class="cls-3"
          d="M99.8,106.45H98.3a.22.22,0,0,0-.2.2h0a.22.22,0,0,0,.2.2h1.5a.22.22,0,0,0,.2-.2h0A.22.22,0,0,0,99.8,106.45Z"/>
    <path class="cls-3"
          d="M85.1,113.55H82.3a.32.32,0,0,0-.3.3h0a.32.32,0,0,0,.3.3h2.8a.32.32,0,0,0,.3-.3h0A.27.27,0,0,0,85.1,113.55Z"/>
    <path class="cls-2"
          d="M86.7,115.55h-1a.22.22,0,0,0-.2.2h0a.22.22,0,0,0,.2.2h1a.22.22,0,0,0,.2-.2h0C87,115.75,86.9,115.55,86.7,115.55Z"/>
    <path class="cls-3"
          d="M85.5,115.75h-.9a.22.22,0,0,0-.2.2h0a.22.22,0,0,0,.2.2h.9a.22.22,0,0,0,.2-.2h0A.22.22,0,0,0,85.5,115.75Z"/>
    <path class="cls-2"
          d="M104,104.65h-2.4a.22.22,0,0,0-.2.2h0a.22.22,0,0,0,.2.2H104a.22.22,0,0,0,.2-.2h0A.22.22,0,0,0,104,104.65Z"/>
    <path class="cls-3"
          d="M101.4,104.45H99a.1.1,0,0,0-.1.1h0a.1.1,0,0,0,.1.1h2.4c.1,0,.1-.1,0-.2h0C101.6,104.55,101.5,104.45,101.4,104.45Z"/>
    <path class="cls-3"
          d="M44.4,162.45H75.9a2.33,2.33,0,0,0,2.3-2.3,2.26,2.26,0,0,0-2.3-2.3H44.4a2.33,2.33,0,0,0-2.3,2.3A2.26,2.26,0,0,0,44.4,162.45Z"/>
    <path class="cls-3"
          d="M26.4,153.45H51.2a2.33,2.33,0,0,0,2.3-2.3,2.26,2.26,0,0,0-2.3-2.3H26.4a2.33,2.33,0,0,0-2.3,2.3A2.26,2.26,0,0,0,26.4,153.45Z"/>
    <path class="cls-3"
          d="M60.1,153.45H75.9a2.33,2.33,0,0,0,2.3-2.3,2.26,2.26,0,0,0-2.3-2.3H60.1a2.3,2.3,0,0,0,0,4.6Z"/>
    <path class="cls-1"
          d="M55.7,152h4.6a.27.27,0,0,1,.3.3h0a.27.27,0,0,1-.3.3H55.7a.27.27,0,0,1-.3-.3h0A.45.45,0,0,1,55.7,152Z"/>
    <path class="cls-1"
          d="M40.7,159.35h4.7a.22.22,0,0,0,.2-.2h0a.22.22,0,0,0-.2-.2H40.7a.22.22,0,0,0-.2.2h0C40.4,159.15,40.5,159.35,40.7,159.35Z"/>
    <path class="cls-3"
          d="M39.6,159.45h1.5a.22.22,0,0,0,.2-.2h0a.22.22,0,0,0-.2-.2H39.6a.22.22,0,0,0-.2.2h0A.22.22,0,0,0,39.6,159.45Z"/>
    <path class="cls-3"
          d="M54.3,152.45h2.8a.32.32,0,0,0,.3-.3h0a.32.32,0,0,0-.3-.3H54.3a.32.32,0,0,0-.3.3h0A.32.32,0,0,0,54.3,152.45Z"/>
    <path class="cls-1"
          d="M52.6,150.35h1a.22.22,0,0,0,.2-.2h0a.22.22,0,0,0-.2-.2h-1a.22.22,0,0,0-.2.2h0A.22.22,0,0,0,52.6,150.35Z"/>
    <path class="cls-3"
          d="M53.8,150.25h.9a.22.22,0,0,0,.2-.2h0a.22.22,0,0,0-.2-.2h-.9a.22.22,0,0,0-.2.2h0A.22.22,0,0,0,53.8,150.25Z"/>
    <path class="cls-2"
          d="M156,6.45a.82.82,0,0,1-.7.1L147.5,5a.85.85,0,0,1-.7-1.1.85.85,0,0,1,1.1-.7l7.8,1.6a.85.85,0,0,1,.7,1.1C156.4,6.05,156.2,6.25,156,6.45Z"/>
    <path class="cls-2"
          d="M151.3,9.55a.82.82,0,0,1-.7.1.85.85,0,0,1-.7-1.1l1.6-7.8a.85.85,0,0,1,1.1-.7.85.85,0,0,1,.7,1.1L151.7,9A.82.82,0,0,1,151.3,9.55Z"/>
    <path class="cls-4"
          d="M165.6,52.45a5.8,5.8,0,1,1,5.8-5.8A5.8,5.8,0,0,1,165.6,52.45Zm0-9.9a4.2,4.2,0,1,0,4.2,4.2A4.23,4.23,0,0,0,165.6,42.55Z"/>
    <path class="cls-1"
          d="M115.4,19.65h-11a1.58,1.58,0,0,1-1.6-1.6h0a1.58,1.58,0,0,1,1.6-1.6h11a1.58,1.58,0,0,1,1.6,1.6h0A1.72,1.72,0,0,1,115.4,19.65Z"/>
    <path class="cls-2"
          d="M125.4,24.35h-8.1a.9.9,0,0,1-.9-.9h0a.9.9,0,0,1,.9-.9h8.1a.9.9,0,0,1,.9.9h0A.9.9,0,0,1,125.4,24.35Z"/>
</svg>
