<svg class="icon icon--strat" viewBox="0 0 226.93 228.7">
    <defs><style>.cls-1{fill:#313131;}.cls-2{fill:#ea4e4f;}</style></defs>
    <path class="cls-1" d="M172.42,20.8a10.4,10.4,0,1,0-10.3-10.4A10.37,10.37,0,0,0,172.42,20.8Zm0-15.4a5,5,0,0,1,5,5,5,5,0,0,1-5,5,5,5,0,0,1-5-5.1A4.87,4.87,0,0,1,172.42,5.4Z"/>
    <path class="cls-2" d="M67.62,178.5a25.1,25.1,0,1,0,25.1,25.1A25.12,25.12,0,0,0,67.62,178.5Zm0,37.5a12.5,12.5,0,1,1,12.5-12.5A12.5,12.5,0,0,1,67.62,216Z"/>
    <path class="cls-2" d="M113.42,119.8a6,6,0,1,0-6-6A6,6,0,0,0,113.42,119.8Z"/>
    <path class="cls-2" d="M79.52,148.4a5.8,5.8,0,0,0,3.3,1,6,6,0,0,0,5-2.7,6.06,6.06,0,0,0-10.1-6.7A6,6,0,0,0,79.52,148.4Z"/>
    <path class="cls-1" d="M92.92,119.7a6.09,6.09,0,0,0-3.1,8,6,6,0,0,0,5.5,3.6,7.42,7.42,0,0,0,2.5-.5,6.09,6.09,0,0,0,3.1-8A6,6,0,0,0,92.92,119.7Z"/>
    <circle class="cls-1" cx="134.42" cy="111.4" r="6"/>
    <path class="cls-1" d="M76,172a6.15,6.15,0,1,0-4.3-1.8A6.22,6.22,0,0,0,76,172Z"/>
    <path class="cls-2" d="M225.22,57.8l-23.4-23.4a6,6,0,0,0-8.6,0l-23.4,23.4a6.08,6.08,0,1,0,8.6,8.6l13-13V69a35.59,35.59,0,0,1-35.7,35.4,6,6,0,0,0,0,12,47.74,47.74,0,0,0,47.8-47.5V53.2l13,13a6,6,0,0,0,8.6,0A5.88,5.88,0,0,0,225.22,57.8Z"/>
    <path class="cls-2" d="M15.82,203.2a1.67,1.67,0,0,0,.9-1.1,2.2,2.2,0,0,0-.1-1.4,1.85,1.85,0,0,0-2.5-.8l-4.9,2.4-2.4-4.9a1.86,1.86,0,0,0-3.3,1.7l2.4,4.9L1,206.4a1.86,1.86,0,1,0,1.7,3.3l4.9-2.4,2.4,4.9a1.85,1.85,0,0,0,2.5.8,1.67,1.67,0,0,0,.9-1.1,1.69,1.69,0,0,0-.1-1.4l-2.4-4.9Z"/>
    <path class="cls-1" d="M39.62,146.2H23.52a2.43,2.43,0,0,1-2.4-2.4h0a2.43,2.43,0,0,1,2.4-2.4h16.1a2.43,2.43,0,0,1,2.4,2.4h0A2.37,2.37,0,0,1,39.62,146.2Z"/ >
    <path class="cls-2" d="M54.42,153.2H42.62a1.32,1.32,0,0,1-1.3-1.3h0a1.32,1.32,0,0,1,1.3-1.3h11.8a1.32,1.32,0,0,1,1.3,1.3h0A1.32,1.32,0,0,1,54.42,153.2Z"/>
    <path class="cls-2" d="M113.62,142.2a1.45,1.45,0,0,0-.2-.7,1.61,1.61,0,0,0-.7-.4,1.17,1.17,0,0,0-1.1.9l-.3,2.9-2.9-.3a1,1,0,0,0-.2,2l2.9.3-.3,2.9a1,1,0,1,0,2,.2l.3-2.9,2.9.3a1.17,1.17,0,0,0,1.1-.9,1.45,1.45,0,0,0-.2-.7,1.61,1.61,0,0,0-.7-.4l-2.9-.3Z"/>
</svg>
